<svg width="88" height="89" fill="none" xmlns="http://www.w3.org/2000/svg"><path d="M88 44.5l-4.565 4.218 3.612 5.086-5.329 3.16 2.487 5.74-5.861 1.957 1.253 6.142-6.132.674-.023 6.274-6.137-.628-1.302 6.13-5.873-1.91-2.53 5.72-5.352-3.119L48.598 89 44 84.818 39.402 89l-3.65-5.056-5.353 3.119-2.529-5.722-5.875 1.912-1.301-6.132-6.137.628-.024-6.272-6.132-.676 1.254-6.142-5.86-1.956 2.487-5.74-5.33-3.159 3.613-5.085L0 44.501l4.565-4.219-3.612-5.085 5.329-3.16-2.487-5.74 5.861-1.958-1.253-6.14 6.132-.676.023-6.272 6.137.628 1.3-6.132L27.87 7.66l2.53-5.722 5.35 3.119L39.402 0 44 4.184 48.598 0l3.65 5.056L57.6 1.937l2.53 5.723 5.875-1.912 1.301 6.132 6.137-.626.024 6.271 6.132.677-1.254 6.14 5.86 1.956-2.487 5.74 5.33 3.16-3.613 5.085L88 44.501z" fill="#C7E80A"/><path d="M13.831 53.907a3.434 3.434 0 01-1.623.245 2.847 2.847 0 01-1.424-.557 2.914 2.914 0 01-.93-1.267 2.872 2.872 0 01-.182-1.554c.089-.516.309-.976.66-1.378.35-.407.8-.72 1.351-.937.506-.199.993-.288 1.46-.266.468.023.897.151 1.288.387l-.719 1.427c-.483-.28-.942-.333-1.379-.161-.367.145-.616.38-.745.706-.131.321-.119.68.038 1.077.156.397.393.67.71.821.316.145.657.145 1.024 0 .437-.172.736-.525.898-1.059l1.5.553c-.126.44-.352.826-.678 1.161a3.499 3.499 0 01-1.249.802zm5.805-8.445l2.054 5.21-1.726.68-1.517-3.848-1.586.625 1.517 3.848-1.726.68-2.054-5.209 5.038-1.986zm6.784 1.814l.523 1.325-4.332 1.707-2.053-5.21 4.235-1.669.522 1.325-2.508.989.24.61 2.203-.869.499 1.266-2.203.868.27.685 2.605-1.027zm6.489-2.601l.939 2.382-1.608.633-.402-1.02-4.182 1.65-2.054-5.21 1.726-.68 1.517 3.847 1.652-.651-1.516-3.848 1.726-.68 1.517 3.847.685-.27zm-.926-4.081l1.727-.68 1.068 2.709.725-3.417 1.653-.65 2.053 5.209-1.726.68-1.065-2.701-.721 3.406-1.66.654-2.054-5.21zm11.47.449l-1.98.78.009 1.046-1.786.704.223-6.107 1.727-.681 4.331 4.312-1.816.716-.708-.77zm-.982-1.075l-1.022-1.11.01 1.51 1.012-.4zm7.089-6.303l2.054 5.21-1.727.68-1.517-3.847-1.19.469.223.609c.273.752.454 1.386.543 1.901.088.515.061.956-.081 1.322-.145.36-.448.632-.909.814a3.367 3.367 0 01-.782.196l-.466-1.441a.927.927 0 00.203-.054.497.497 0 00.328-.388c.041-.188.03-.413-.033-.675a10.7 10.7 0 00-.31-1.004l-.734-2.058 4.398-1.734zm4.357.131c.65-.256 1.209-.307 1.677-.154.465.15.81.507 1.033 1.072.24.61.224 1.159-.049 1.645-.274.48-.762.859-1.461 1.135l-2.583 1.018-2.054-5.21 1.727-.68.63 1.6 1.08-.426zm.597 2.517a.655.655 0 00.374-.337c.07-.16.065-.338-.014-.537-.136-.347-.408-.44-.815-.28l-.737.29.455 1.154.737-.29zm6.546-7.182l2.053 5.21-1.756.693-.757-1.92-1.623.64.758 1.92-1.757.692-2.054-5.21 1.757-.692.727 1.845 1.623-.64-.728-1.845 1.757-.693zm5.676 3.919c-.56.222-1.11.304-1.649.247a2.834 2.834 0 01-1.43-.554 2.855 2.855 0 01-.934-1.257 2.815 2.815 0 01.492-2.938c.355-.41.813-.724 1.373-.945a3.455 3.455 0 011.65-.246 2.814 2.814 0 012.364 1.81 2.85 2.85 0 01.175 1.557 2.82 2.82 0 01-.668 1.381c-.355.41-.812.725-1.373.946zm-.56-1.42c.218-.087.394-.216.526-.389.136-.18.217-.387.245-.621a1.585 1.585 0 00-.116-.754 1.531 1.531 0 00-.427-.623 1.187 1.187 0 00-.603-.287 1.163 1.163 0 00-.652.068 1.203 1.203 0 00-.769 1.017c-.028.235.01.483.114.746.103.263.246.474.429.63.18.153.379.25.596.29.22.034.438.008.657-.078zm7.894-3.139l.523 1.325-4.332 1.707-2.054-5.21 4.235-1.669.522 1.325-2.508.989.24.61 2.204-.869.499 1.266-2.203.868.27.685 2.604-1.027zM17.152 57.19l2.053 5.21-1.726.68-1.517-3.847-1.585.625 1.516 3.848-1.726.68-2.054-5.21 5.039-1.986zm3.428-1.352c.482-.19.933-.275 1.353-.257.42.018.785.137 1.096.359.31.221.544.53.7.927.157.397.197.783.121 1.157-.076.374-.261.71-.556 1.01-.295.3-.683.544-1.164.734l-.752.296.505 1.28-1.756.693-2.054-5.21 2.508-.989zm.905 2.62c.238-.094.396-.217.474-.368.076-.156.076-.331 0-.525-.077-.193-.195-.318-.355-.376-.162-.062-.363-.046-.6.048l-.64.252.48 1.22.64-.252zm7.865-1.588l.523 1.325-4.332 1.707-2.053-5.21 4.234-1.669.523 1.325-2.509.989.241.61 2.203-.869.499 1.266-2.203.868.27.685 2.605-1.027zm6.54-2.622l.94 2.382-1.608.634-.402-1.02-2.962 1.168.402 1.02-1.607.633-.94-2.381.15-.059c.302-.12.44-.394.414-.825-.027-.431-.17-1.026-.428-1.784l-.566-1.608 4.406-1.737 1.517 3.848.685-.27zm-4.457-.684c.178.509.306.951.386 1.327.077.37.095.685.053.942l1.608-.634-.98-2.486-1.199.473.132.378zm8.614-5.4l2.054 5.21-1.727.68-1.517-3.847-1.19.47.222.608c.274.752.455 1.386.543 1.901.089.516.062.956-.08 1.322-.145.36-.448.632-.91.814a3.362 3.362 0 01-.782.197l-.465-1.442a.927.927 0 00.203-.054.497.497 0 00.328-.388c.04-.188.03-.412-.033-.674a10.72 10.72 0 00-.31-1.005l-.734-2.058 4.398-1.734zm5.671 3.922c-.561.22-1.11.303-1.65.246a2.834 2.834 0 01-1.43-.554 2.856 2.856 0 01-.934-1.257 2.815 2.815 0 01.493-2.938 3.457 3.457 0 011.373-.945 3.456 3.456 0 011.649-.246 2.816 2.816 0 012.365 1.81 2.86 2.86 0 01.174 1.557c-.09.512-.313.972-.667 1.381-.355.41-.813.725-1.373.946zm-.56-1.422c.218-.086.393-.215.526-.388.135-.18.217-.387.245-.621.026-.24-.013-.49-.117-.754a1.529 1.529 0 00-.426-.623 1.188 1.188 0 00-.603-.287 1.162 1.162 0 00-.653.068 1.203 1.203 0 00-.768 1.017c-.028.235.01.483.113.746.104.263.247.474.43.631.18.152.378.249.595.29.22.033.439.007.657-.079zm8.252-3.924l-.454.18.742 1.882-1.712.675-.742-1.883-.47.185-.12 2.223-2.017.795.32-3.29-2.3-1.949 1.831-.722 1.696 1.576.514-.202-.766-1.943 1.712-.675.766 1.943.484-.19.179-2.316 1.83-.722-.342 2.99 2.471 2.19-2.017.796-1.605-1.543zm7.79-2.426l.522 1.325-4.332 1.707-2.054-5.21 4.235-1.669.522 1.325-2.508.989.24.61 2.204-.868.499 1.265-2.203.868.27.685 2.605-1.027zm4.316-6.19l2.054 5.21-1.757.692-.757-1.92-1.622.64.757 1.92-1.757.692-2.054-5.21 1.757-.692.727 1.846 1.623-.64-.728-1.846 1.757-.692zm.926-.365l1.727-.681 1.068 2.709.725-3.416 1.653-.652 2.053 5.21-1.726.68-1.065-2.7-.721 3.405-1.66.654-2.054-5.21zm11.961-.227l.522 1.325-4.331 1.707-2.054-5.21 4.235-1.669.522 1.325-2.508.989.24.61 2.203-.869.5 1.266-2.204.868.27.685 2.605-1.027z" fill="#242222"/></svg>