<svg width="67" height="67" viewBox="0 0 67 67" fill="none" xmlns="http://www.w3.org/2000/svg"><path d="M67 33.5l-3.476 3.175 2.75 3.83-4.057 2.378 1.894 4.322-4.463 1.472.954 4.624-4.668.508-.018 4.722-4.673-.472-.99 4.614-4.472-1.437-1.926 4.306-4.075-2.348L37 67l-3.5-3.148L30 67l-2.78-3.806-4.075 2.348-1.926-4.308-4.473 1.44-.99-4.617-4.673.473-.018-4.721-4.669-.51.955-4.623-4.462-1.473 1.894-4.321-4.058-2.378 2.75-3.828L0 33.501l3.476-3.176-2.75-3.828 4.057-2.379-1.894-4.321 4.463-1.474-.955-4.623 4.67-.509.017-4.721 4.673.473.99-4.616 4.472 1.439 1.926-4.308 4.074 2.348L30 0l3.5 3.15L37 0l2.78 3.806 4.075-2.348 1.926 4.308 4.473-1.44.99 4.617 4.673-.472.018 4.722 4.669.509-.955 4.622 4.462 1.473-1.894 4.321 4.058 2.379-2.75 3.828L67 33.5z" fill="#C7E80A"/><path d="M10.53 40.582c-.419.163-.83.225-1.235.184a2.182 2.182 0 01-1.084-.42 2.196 2.196 0 01-.708-.953 2.14 2.14 0 01-.139-1.17c.068-.389.235-.734.503-1.037a2.57 2.57 0 011.028-.705 2.7 2.7 0 011.112-.2c.356.016.683.113.98.29l-.547 1.075c-.367-.21-.717-.251-1.05-.122-.28.11-.468.287-.567.532-.1.242-.09.512.029.811.119.299.3.505.54.618.24.11.5.11.78 0 .332-.13.56-.395.684-.797l1.141.416a2.03 2.03 0 01-.515.874 2.679 2.679 0 01-.951.604zm4.42-6.358l1.564 3.922-1.314.512-1.155-2.896-1.207.47 1.155 2.897-1.315.512-1.564-3.922 3.837-1.495zm5.166 1.366l.398.997-3.298 1.285-1.564-3.922 3.224-1.256.398.997-1.91.744.184.46 1.677-.654.38.953-1.678.653.206.516 1.983-.773zm4.94-1.958l.715 1.793-1.224.477-.306-.768-3.185 1.242-1.564-3.922 1.315-.513 1.155 2.897 1.258-.49-1.155-2.897 1.315-.513 1.155 2.897.52-.203zm-.705-3.072l1.315-.513.813 2.04.552-2.572 1.258-.49 1.564 3.922-1.315.512-.81-2.034-.55 2.564-1.263.493-1.564-3.922zm8.733.337l-1.507.588.006.787-1.36.53.17-4.598 1.315-.512 3.298 3.246-1.383.539-.539-.58zm-.748-.809l-.778-.836.008 1.137.77-.3zm5.398-4.745l1.563 3.922-1.314.513-1.155-2.897-.907.353.17.459c.208.566.346 1.043.413 1.43.068.389.047.72-.061.996-.11.271-.34.476-.692.613a2.626 2.626 0 01-.596.148l-.354-1.086a.709.709 0 00.154-.04.375.375 0 00.25-.292 1.14 1.14 0 00-.025-.508 8.04 8.04 0 00-.236-.756l-.56-1.55 3.35-1.305zm3.316.099c.496-.193.921-.232 1.277-.116.355.112.617.381.787.807.183.46.17.872-.037 1.238-.21.362-.58.647-1.113.855l-1.966.766-1.564-3.922 1.315-.512.48 1.204.822-.32zm.455 1.895a.497.497 0 00.285-.254.507.507 0 00-.01-.404c-.105-.261-.312-.332-.621-.211l-.561.219.346.868.561-.218zm4.984-5.407l1.564 3.922-1.338.522-.576-1.446-1.235.482.576 1.445-1.337.521-1.564-3.922 1.337-.52.554 1.389 1.236-.482-.555-1.39 1.338-.52zm4.321 2.95a2.656 2.656 0 01-1.255.186 2.171 2.171 0 01-1.089-.417 2.152 2.152 0 01-.711-.946 2.097 2.097 0 01.375-2.212c.27-.308.619-.545 1.045-.712a2.658 2.658 0 011.256-.184 2.149 2.149 0 011.801 1.362c.156.393.2.783.133 1.172a2.123 2.123 0 01-.509 1.04 2.63 2.63 0 01-1.045.712zm-.426-1.07a.916.916 0 00.4-.291.94.94 0 00.188-.468c.02-.18-.01-.37-.09-.568a1.153 1.153 0 00-.324-.469.91.91 0 00-.459-.216.895.895 0 00-.497.052.902.902 0 00-.585.765 1.14 1.14 0 00.086.562c.08.198.188.356.327.475a.978.978 0 00.454.218.96.96 0 00.5-.06zm6.011-2.362l.397.998-3.297 1.285-1.564-3.922 3.224-1.257.398.998-1.91.744.183.46 1.678-.654.38.952-1.678.654.205.515 1.984-.773zM13.059 43.053l1.564 3.922-1.315.513-1.155-2.897-1.207.47 1.155 2.897-1.315.513-1.563-3.922 3.836-1.496zm2.611-1.017a2.53 2.53 0 011.029-.194c.32.013.598.103.834.27.237.167.415.4.534.698.12.299.15.59.092.87-.058.282-.2.536-.424.761a2.52 2.52 0 01-.886.553l-.572.223.384.964-1.337.52-1.564-3.921 1.91-.744zm.688 1.971c.181-.07.302-.163.36-.276a.469.469 0 000-.395.457.457 0 00-.27-.283c-.123-.047-.275-.035-.457.035l-.487.19.367.92.487-.19zm5.989-1.195l.397.997-3.297 1.286-1.564-3.922 3.224-1.257.398.998-1.91.744.183.46 1.678-.654.38.952-1.678.654.205.515 1.984-.773zm4.979-1.973l.715 1.793-1.224.477-.306-.768-2.255.88.306.767-1.224.477-.715-1.793.113-.044c.23-.09.336-.297.316-.621-.02-.325-.13-.772-.326-1.343l-.43-1.211 3.354-1.308 1.155 2.897.521-.203zm-3.394-.516c.136.383.233.716.294 1 .059.278.072.515.04.709l1.224-.478-.746-1.87-.912.355.1.284zm6.558-4.065l1.564 3.922-1.314.513-1.155-2.897-.907.354.17.458c.208.566.346 1.043.413 1.431.068.388.047.72-.061.995-.11.272-.34.476-.692.613-.178.07-.376.119-.596.148l-.354-1.085a.708.708 0 00.154-.041.375.375 0 00.25-.292 1.14 1.14 0 00-.025-.508 8.009 8.009 0 00-.236-.756l-.56-1.55 3.35-1.305zm4.318 2.952a2.658 2.658 0 01-1.255.186 2.172 2.172 0 01-1.09-.417 2.151 2.151 0 01-.71-.947 2.096 2.096 0 01.374-2.21c.27-.309.619-.546 1.046-.713a2.658 2.658 0 011.255-.185c.41.043.774.184 1.092.423.316.235.552.548.709.94.156.393.2.783.133 1.172-.07.385-.239.732-.509 1.04-.27.308-.618.545-1.045.712zm-.427-1.07a.916.916 0 00.401-.292.94.94 0 00.187-.467c.02-.18-.01-.37-.089-.568a1.152 1.152 0 00-.325-.469.91.91 0 00-.459-.216.894.894 0 00-.496.051.902.902 0 00-.585.765 1.14 1.14 0 00.086.563c.079.198.188.356.327.474a.978.978 0 00.453.218.958.958 0 00.5-.058zm6.283-2.954l-.345.135.565 1.418-1.303.508-.566-1.418-.357.14-.092 1.673-1.535.599.243-2.477-1.75-1.467 1.393-.544 1.292 1.187.39-.153-.582-1.462 1.303-.508.583 1.462.369-.144.136-1.742 1.394-.544-.261 2.251 1.881 1.65-1.535.598-1.223-1.162zm5.931-1.826l.398.997-3.298 1.286-1.564-3.922 3.225-1.257.397.997-1.91.745.184.46 1.677-.655.38.953-1.678.654.206.515 1.983-.773zm3.287-4.66l1.563 3.922-1.337.521-.576-1.445-1.236.481.577 1.446-1.338.52-1.563-3.921 1.337-.521.554 1.39 1.235-.482-.554-1.39 1.338-.521zm.705-.275l1.314-.512.813 2.039.553-2.572 1.258-.49 1.564 3.922-1.315.512-.81-2.034-.55 2.564-1.264.493-1.563-3.922zm9.107-.171l.397.998-3.298 1.285-1.563-3.922 3.224-1.257.397.998-1.91.744.184.46 1.677-.654.38.952-1.677.654.205.515 1.983-.773z" fill="#242222"/></svg>