<svg xmlns="http://www.w3.org/2000/svg" xmlns:xlink="http://www.w3.org/1999/xlink"><defs><clipPath id="clip0_111_515"><path fill="#fff" d="M0 0h84v84H0z"/></clipPath><linearGradient id="paint0_linear_112_2" x1="0" y1="23" x2="25.5" y2="2" gradientUnits="userSpaceOnUse"><stop stop-color="#DF993D"/><stop offset=".466" stop-color="#C3276A"/><stop offset="1" stop-color="#7024C4"/></linearGradient></defs><symbol id="icon-accordion-toggler"><path d="M17 20L.546.5h32.909L17 20z" fill="#C7E80A"/></symbol><symbol id="icon-arrow"><path d="M33.75 85.156L.959 44 33.75 2.844v82.312z" stroke="var(--hover, #C7E80A)" stroke-width="1.5"/></symbol><symbol id="icon-availability"><path d="M84 42c0 23.196-18.804 42-42 42S0 65.196 0 42 18.804 0 42 0s42 18.804 42 42z" fill="#C7E80A"/><path d="M84 42c0 23.196-18.804 42-42 42S0 65.196 0 42 18.804 0 42 0s42 18.804 42 42z" fill="#C7E80A"/><path d="M22 51.822v-20.16c0-.918.782-1.662 1.747-1.662h37.506c.965 0 1.747.744 1.747 1.662v32.676c0 .918-.782 1.662-1.747 1.662H24.457" stroke="#2D3807" stroke-width="3" stroke-linecap="round"/><path d="M14 35l26.998-17.727a1.658 1.658 0 011.818-.003L70 35M16 56h21" stroke="#2D3807" stroke-width="3" stroke-linecap="round"/><path d="M14 51v11" stroke="#2D3807" stroke-width="4" stroke-linecap="round"/><path d="M10 52v9" stroke="#2D3807" stroke-width="3" stroke-linecap="round"/><path d="M7 55v4" stroke="#2D3807" stroke-width="2" stroke-linecap="round"/><path d="M42 52v9" stroke="#2D3807" stroke-width="3" stroke-linecap="round"/><path d="M45 55v4m-8-8v11" stroke="#2D3807" stroke-width="2" stroke-linecap="round"/><path d="M38 51v11" stroke="#2D3807" stroke-width="4" stroke-linecap="round"/><path d="M12 28l-3 2m12.133-8.85l-2.262 1.7M31 15l-3 2m10.915-6.207l-2.828 1.414m9.393-.987l2.621 1.336M53.91 15.5l2.523 1.512m7.348 4.261l2.415 1.678m7.414 5.121l2.335 1.788" stroke="#2D3807" stroke-width="2" stroke-linecap="round"/></symbol><symbol id="icon-coach"><path d="M84 42c0 23.196-18.804 42-42 42S0 65.196 0 42 18.804 0 42 0s42 18.804 42 42z" fill="#C7E80A"/><path d="M21 68l-3-2m7.285-34.564L23 32.686m-8.484 26.631l-1.032-2.633M12 48v-3m18.824 25.488L28 70.335M15 38l2-1m24-27h2m-12.707 3.708l1.412-1.416M28 22.981l.275-1.98m2.432 7.81l-1.142-1.641M38 71.188l3.996-.189m10.668-2.145L50 69.808" stroke="#000" stroke-width="2" stroke-linecap="round"/><path d="M52.36 16.1c.484.779.659 4.727.638 5.279-.02.552-8.97 3.72-10.925 3.619-1.955-.102-5.689-.876-6.025-1.542-.337-.666 1.19-7.902 1.988-8.32.798-.417 13.839.186 14.323.964z" fill="#2D3807" stroke="#2D3807" stroke-width="2" stroke-linecap="round"/><path d="M53 12l2 1m12.148 24.906l.323 2.81M64.887 28l.907 2.679m-4.216-12.531l1.521 2.384M68 48v3m-1.715 6l-1.287 2.143M61.955 64l-2.782 1.505" stroke="#000" stroke-width="2" stroke-linecap="round"/><path d="M20.4 45.497c2.384-4.744 5.622-6.913 11.76-6.913 5.998 0 10.44 3.19 10.64 3.336-.081-.063-.843-.716-.84-3.336.004-2.77 2.03-6.685 3.369-10.848 1.34-4.164.46-7.155.46-7.155L52.526 19s1.172 8.424 1.62 11.135c.45 2.71 1.854 7.573 1.854 7.573s1.528 8.159.806 11.006c-.721 2.846-1.199 4.167-1.915 5.852-.717 1.685-.744 3.54-.744 3.54l-2.457.753s-3.694-.753-5.932-.753C43.52 58.106 34.967 62 32.16 62c-2.807 0-8.414-.204-10.83-3.894-2.417-3.69-3.317-7.864-.932-12.609z" fill="#2D3807"/><path d="M20.4 45.497c2.384-4.744 5.622-6.913 11.76-6.913 6.139 0 10.648 3.341 10.648 3.341s-.852-.573-.848-3.341c.004-2.77 2.03-6.685 3.369-10.848 1.34-4.164.46-7.155.46-7.155L52.526 19s1.172 8.424 1.62 11.135c.45 2.71 1.854 7.573 1.854 7.573s1.528 8.159.806 11.006c-.721 2.846-1.199 4.167-1.915 5.852-.717 1.685-.744 3.54-.744 3.54l-2.457.753s-3.694-.753-5.932-.753C43.52 58.106 34.967 62 32.16 62c-2.807 0-8.414-.204-10.83-3.894-2.417-3.69-3.317-7.864-.932-12.609z" stroke="#2D3807" stroke-width="2"/><path d="M40.002 36c-.12 4.661 4.096 11.842 5.998 14m-21 3c3.196 2.86 11.16 2.279 14 .584M38 20l-1 5m4-5l-1 6m4.587-5.127l-1.174 5.255M48 23.458c.194.093 2.047 1.171 2.969 0C51.891 22.287 52 20 52 20m-8 6c.51-.031 1.762-1.114 2.27-1.497.509-.382.75-1.998.729-2.503" stroke="#C7E80A" stroke-linecap="round"/><path d="M41 26.603L37.17 26s-.85 1.611 1.256 1.954c2.106.343 2.574-1.351 2.574-1.351z" fill="#2D3807"/></symbol><symbol id="icon-cryosauna"><path d="M84 42c0 23.196-18.804 42-42 42S0 65.196 0 42 18.804 0 42 0s42 18.804 42 42z" fill="#C7E80A"/><path d="M54 74.044l3-1m-28.047.071l-2.302-1.826m35.658-2.96l1.667-2.285M24 18.044l-2 3m40.379-2.87L65 21.044m-35-10l-3 2m28-2l2.157 1.996M35.336 75.117l2.937.073M35.336 9l2.937.073m6.907.031l2.937.072M43.602 75.22l2.937.073M19 29.044v3m0 8v3m0 9v4m1.285 8.209l1.937 2.209M65 52.044v4m.07-16L65 42.98m0-13.936v3" stroke="#2D3807" stroke-width="2" stroke-linecap="round"/><path d="M41.5 26.044a4.5 4.5 0 100-9 4.5 4.5 0 000 9z" fill="#2D3807"/><path d="M46.572 32.044H36.428c-.265 0-.47-.203-.42-.438.256-1.22 1.326-4.562 5.35-4.562 4 0 5.287 3.303 5.63 4.54.066.24-.14.46-.416.46z" fill="#2D3807" stroke="#2D3807" stroke-linecap="round"/><path d="M35.105 23.044l-7.933 5.8a.415.415 0 00-.172.335v31.93c0 .131.063.255.17.334l7.475 5.517a.43.43 0 00.256.084h14.198a.43.43 0 00.256-.084l7.475-5.516a.416.416 0 00.17-.335V29.19a.416.416 0 00-.185-.345l-8.6-5.8" stroke="#2D3807" stroke-width="2" stroke-linecap="round"/><path d="M28 28.544l6.016 3.448a.4.4 0 00.196.052h13.576a.4.4 0 00.196-.052l7.516-2.948" stroke="#2D3807" stroke-width="2" stroke-linecap="round"/><path d="M35 32.044v9m13-9v9m1 17v8m-14-8v8" stroke="#2D3807"/><path d="M42 40.044v14m6.002-11l-11.94 7.823m.078-7.682l12.212 8.293m-1.825-9.434l-.414 1.927 1.844.938m-7.859-4.186l1.908 1.257 1.806-1.257m-.097 12.135l-1.898-1.272L40 52.83m-3.023-10.786l.301 1.948-1.895.829m2.117 7.223l-.086-2.414-2.04-.345m12.86.122l-1.923.65.33 2.126" stroke="#2D3807" stroke-linecap="round"/><path d="M45 47.044a3 3 0 11-6 0 3 3 0 016 0zm-5.238 0a2.238 2.238 0 104.476 0 2.238 2.238 0 00-4.476 0z" fill="#2D3807"/></symbol><symbol id="icon-hamam"><g clip-path="url(#clip0_111_515)"><path d="M66 2043.5C66 3143.38-825.625 4035-1925.5 4035c-1099.88 0-1991.5-891.62-1991.5-1991.5C-3917 943.625-3025.38 52-1925.5 52-825.625 52 66 943.625 66 2043.5zM84 42c0 23.196-18.804 42-42 42S0 65.196 0 42 18.804 0 42 0s42 18.804 42 42z" fill="#C7E80A"/><path stroke="#2D3807" stroke-width="2" stroke-linecap="round" d="M37.529 64.431l-2.203.081m11.881-.174l-2.185-.296m25.065-48.226l-1.416-1.69m5.519 10.868l.512 2.145M58.234 61.512l-1.958 1.013m9.659-6.027l-1.693 1.413m8.095-9.823l-1.166 1.871m3.835-12.499l-.394 2.169M18.435 70.944l-1.415 1.69m10.465-7.101l-1.994.94"/><circle cx="59" cy="31" r="5" fill="#2D3807"/><path d="M42.064 56.042L60 37c-9.806 0-13.715 1.427-21.396 13.177 0 0-11.67.938-13.912 3.177C22.452 55.594 12.114 66 14.302 66c2.189 0 12.35-8.49 14.163-8.49 1.813 0 13.6-1.468 13.6-1.468z" fill="#2D3807" stroke="#2D3807" stroke-linecap="round"/><path d="M50 59.922C35.578 54.126 19.418 62.698 15 69m29.858-10.455c19.703-4.119 24.464-25.993 21.786-36.496M15 62V48.178a4.721 4.721 0 014.721-4.721v0m29.225 0H19.721m0 0s-.797-8.844 0-9.556c.798-.713 2.287 0 3.043-1.34.755-1.34-2.099-.785-3.043-2.3C18.777 28.748 25.271 10 35.89 10c10.616 0 16.113 18.968 15.41 20.262-.703 1.293-3.772.755-3.772 2.299s2.198 0 3.772 1.34c1.573 1.34 0 9.556 0 9.556" stroke="#2D3807" stroke-linecap="round"/><path d="M23.354 42s-.728-6.842-.096-7.46c.632-.617 2.56-1.338 2.56-2.605s-1.488-.68-2.236-1.993C22.835 28.629 27.75 13 36.16 13s12.466 15.29 11.91 16.41c-.557 1.122-3.034 1.728-2.735 3.056.299 1.329 1.81 2.075 3.095 2.667 1.285.593 0 6.867 0 6.867" stroke="#2D3807" stroke-linecap="round"/></g></symbol><symbol id="icon-inst" viewBox="0 0 28 28"><path d="M16 28h-4C5.373 28 0 22.627 0 16v-4C0 5.373 5.373 0 12 0h4c6.627 0 12 5.373 12 12v4c0 6.627-5.373 12-12 12z" fill="url(#paint0_linear_112_2)"/><path d="M17.581 6H10.42a4.429 4.429 0 00-3.125 1.297A4.417 4.417 0 006 10.42v7.167a4.417 4.417 0 001.296 3.118A4.429 4.429 0 0010.42 22h7.162a4.429 4.429 0 003.123-1.295A4.417 4.417 0 0022 17.587V10.42a4.417 4.417 0 00-1.294-3.123A4.429 4.429 0 0017.581 6zm3.002 11.587a2.996 2.996 0 01-3.002 2.99H10.42a3.004 3.004 0 01-3.002-2.99V10.42a3.003 3.003 0 013.002-2.998h7.162a3.01 3.01 0 013.002 2.998v7.167z" fill="#fff"/><path d="M14.007 10a4 4 0 10-.014 8 4 4 0 00.014-8zm0 6.615a2.622 2.622 0 110-5.244 2.622 2.622 0 010 5.244zM18.003 9A1.005 1.005 0 0017 10a.998.998 0 001.003 1c.264-.002.518-.104.709-.287a1.011 1.011 0 000-1.413 1.038 1.038 0 00-.709-.3z" fill="#fff"/></symbol><symbol id="icon-logo" viewBox="0 0 2586 1244"><path d="M277.123 665.078l75.469-.066-109.637 218.409-79.472.349 113.64-218.692zm476.69 68.746H607.646l-24.615 49.567h-79L641.23 521.449h79l137.196 261.942h-79l-24.613-49.567zm-120.788-51.092h95.79l-47.703-96.465-48.087 96.465zm569.435 100.659V599.422l-97.32 183.969h-67.93l-97.319-183.969v183.969h-70.793V521.449h96.175l105.907 198.268 105.9-198.268h95.79v261.942h-70.41zm454.56 0V599.422l-97.32 183.969h-67.92l-97.33-183.969v183.969h-70.79V521.449h96.18l105.9 198.268 105.9-198.268h95.79v261.942h-70.41zm121.2 0V521.449h265.43v55.858h-192.72v43.276h182.8v55.858h-182.8v51.092h195.39v55.858h-268.1zm376.14 0h-70.79V521.449h177.46c19.08 0 35.24 1.97 48.46 5.91 13.36 3.94 24.17 9.532 32.45 16.776 8.39 7.245 14.43 16.015 18.12 26.309 3.82 10.168 5.73 21.542 5.73 34.125 0 11.058-1.6 20.716-4.78 28.978-3.05 8.261-7.24 15.378-12.59 21.352-5.21 5.846-11.32 10.803-18.32 14.87a124.322 124.322 0 01-22.13 10.104l85.86 103.518h-82.81l-79.38-96.464h-77.28v96.464zm139.87-179.203c0-5.084-.7-9.405-2.1-12.964-1.27-3.558-3.56-6.418-6.87-8.579-3.3-2.288-7.76-3.94-13.35-4.956-5.48-1.017-12.35-1.526-20.61-1.526h-96.94v56.049h96.94c8.26 0 15.13-.508 20.61-1.525 5.59-1.016 10.05-2.605 13.35-4.766 3.31-2.288 5.6-5.211 6.87-8.77 1.4-3.559 2.1-7.879 2.1-12.963z" fill="#fff"/><path d="M362.99 485.939l73.914.119-62.596 124.013-76.351-.036 65.033-124.096z" fill="#C7E80A"/><path d="M503.779 491.93l74.088-.001-145.735 290.074-79.789-.001L503.779 491.93zm-293.344 0l74.089-.001-145.735 290.074L59 782.002 210.435 491.93z" fill="#fff"/></symbol><symbol id="icon-massage"><path d="M84 42c0 23.196-18.804 42-42 42S0 65.196 0 42 18.804 0 42 0s42 18.804 42 42z" fill="#C7E80A"/><path d="M73.6 49.126L71.203 47M81 53l-3-1M47.22 8.713l-2.443-1.426M38 5l-3-1m19.3 8.927l2.261 1.88m4.459 5.803l1.62 2.454M66 29l1.07 2.739m1 7.261L68 41.94" stroke="#2D3807" stroke-width="2" stroke-linecap="round"/><path d="M43.5 26c2.485 0 4.5-2.239 4.5-5s-2.015-5-4.5-5-4.5 2.239-4.5 5 2.015 5 4.5 5zM16 51a5 5 0 100-10 5 5 0 000 10z" fill="#2D3807"/><path d="M47.123 26.465c-5.427 3.598-13.262 10.63-14.99 13.519-1.594 2.663 11.687-3.213 13.773-4.148a.411.411 0 01.48.106c1.715 1.93 2.914 4.019 3.622 6.744a.423.423 0 00.41.314h9.09c.092 0 .184-.026.243-.095 1.875-2.205-7.29-19.98-12.628-16.44z" fill="#2D3807" stroke="#2D3807" stroke-linecap="round"/><path d="M9 54h62" stroke="#2D3807" stroke-width="2" stroke-linecap="round"/><path d="M59.955 44.602c-3.611-.85-34.943-.755-36.047 0-1.105.756-.875 6.146-.875 8.234s-4.614 6.825-2.823 7.995C22 62 26.364 58.022 27.292 56.57c.726-1.134.814-3.468.818-4.43a.428.428 0 01.439-.42c4.308.074 38.638.643 40.196-.008 1.662-.694-5.18-6.26-8.79-7.11z" fill="#2D3807" stroke="#C7E80A" stroke-linecap="round"/><path d="M60.533 57h-5.067c-.258 0-.468.19-.466.434.023 2.36.253 13.566 2.584 13.566 2.323 0 3.243-11.128 3.415-13.542.018-.253-.196-.458-.466-.458z" fill="#2D3807" stroke="#2D3807" stroke-linecap="round"/></symbol><symbol id="icon-prices"><path d="M84 42c0 23.196-18.804 42-42 42S0 65.196 0 42 18.804 0 42 0s42 18.804 42 42z" fill="#C7E80A"/><rect x="37.836" y="20.31" width="46.717" height="27.955" rx="4" transform="rotate(67.825 37.836 20.31)" fill="#2D3807"/><path stroke="#C7E80A" stroke-width="2" stroke-linecap="square" d="M16.901 29.828l17.35 41.807"/><path d="M75 46c0 9.363-7.809 17-17.5 17C47.809 63 40 55.363 40 46s7.809-17 17.5-17C67.191 29 75 36.637 75 46z" fill="#C7E80A" stroke="#2D3807" stroke-width="2"/><path d="M61.376 51.802h-6.08v2.954l-.243.244H53.1l-.245-.244v-2.954h-1.013l-.244-.244v-1.465l.244-.244h1.014v-2.222h-1.014l-.244-.244v-1.465l.244-.244h1.014v-8.496l.244-.244c.374-.041.773-.074 1.196-.098a32.76 32.76 0 011.294-.073 70.765 70.765 0 012.563-.05c.928 0 1.77.094 2.527.282.765.179 1.42.48 1.965.903.554.423.981.985 1.282 1.684.301.692.452 1.55.452 2.576v.244c0 1.001-.163 1.84-.488 2.515a4.067 4.067 0 01-1.343 1.611c-.578.4-1.274.684-2.088.855-.813.163-1.709.244-2.685.244h-2.478v2.222h6.079l.244.244v1.465l-.244.244zm-3.711-12.89c-.17 0-.362.003-.574.011-.203 0-.41.008-.622.025a7.7 7.7 0 00-.623.049 4.66 4.66 0 00-.55.073v6.604h2.26c.666 0 1.269-.033 1.806-.098.545-.073 1.009-.224 1.391-.452a2.31 2.31 0 00.88-.988c.203-.432.304-1.01.304-1.734v-.244c0-.667-.11-1.212-.33-1.636a2.472 2.472 0 00-.902-.988 3.49 3.49 0 00-1.355-.489 9.955 9.955 0 00-1.685-.134z" fill="#2D3807"/><path stroke="#2D3807" stroke-width="2" stroke-linecap="round" d="M21.379 72.52l-.991-1.914m-3.402-6.967l-.799-2.002m-2.744-8.332l-.799-2.002M9.56 44.068l-.798-2.002m-.992-8.584l.33-2.13m3.263-7.154l1.842-1.119m8.154-4.607l2.005-.792m8.033-2.383l2.076-.579m8.124 1.292l1.466 1.58m3.503 6.614l.759 2.017m19.025-.591l1.95.918m-12.729-1.754l2.109-.442m16.984 6.087l1.221 1.836m3.26 7.916l.356 2.177"/></symbol><symbol id="icon-sauna"><path d="M84 42c0 23.196-18.804 42-42 42S0 65.196 0 42 18.804 0 42 0s42 18.804 42 42z" fill="#C7E80A"/><path d="M9 30l-3-2m12 7l-3-2m12-1l-3 2m11.763-6.437l-2.764 2.316m9.454-4.892l2.839.767m3.739-4.054l1.504-2.526m6.145-2.673l2.935-.171m6.342 1.576l2.335 1.787m3.224 5.338l1.07 2.739m1.664 8.214l-.07 2.94" stroke="#2D3807" stroke-width="2" stroke-linecap="round"/><path d="M59 37a5 5 0 100-10 5 5 0 000 10z" fill="#2D3807"/><path d="M58.996 42.527C58.6 40.359 42.7 31.082 39.736 32.074c-2.964.992-12.059 8.738-10.128 8.738 1.757 0 8.704-4.46 9.94-5.263a.405.405 0 01.392-.03c1.148.522 6.649 3.172 4.43 4.936-2.472 1.966-24.86 16.291-20.902 18.363 3.958 2.07 35.924-14.124 35.528-16.291z" fill="#2D3807" stroke="#2D3807" stroke-width="2" stroke-linecap="round"/><path d="M10 57.206c5.257 2.989 10.77 5.135 21.047 4.75 10.276-.386 22.934-10.052 29.465-11.624C67.044 48.759 74 53.29 74 53.29" stroke="#2D3807" stroke-width="2" stroke-linecap="round"/><path d="M10 62.206c5.257 2.989 10.77 5.135 21.047 4.75 10.276-.386 22.934-10.052 29.465-11.624C67.044 53.759 74 58.29 74 58.29" stroke="#2D3807" stroke-width="2" stroke-linecap="round"/></symbol><symbol id="icon-solarium"><path d="M84 42c0 23.196-18.804 42-42 42S0 65.196 0 42 18.804 0 42 0s42 18.804 42 42z" fill="#C7E80A"/><path d="M71.352 67.321l1.617-2.32M76 59l1-3M15 27h-3m54.723 1.35l2.94.072" stroke="#2D3807" stroke-width="2" stroke-linecap="round"/><path d="M30.785 22.06l4.196-.532m-.247 5.257l3.038-2.69M49.8 26.621l-3.037-2.69m-4.095 4.752l-.186-3.23m11.608-2.651l-4.385-1.518" stroke="#2D3807" stroke-linecap="round"/><path d="M77 33l.918 2.795M6.457 31l-.456 2.906M4.754 42.67l.244 2.932m1.928 9.813l.81 2.828m3.498 6.929l1.621 2.455M79.07 45L79 47.94" stroke="#2D3807" stroke-width="2" stroke-linecap="round"/><path d="M19 47a4 4 0 100-8 4 4 0 000 8z" fill="#2D3807"/><path d="M62.564 47H26.408a.41.41 0 01-.4-.493c.318-1.584 1.385-6.44 2.555-6.506 1.303-.074 28.2 3.584 31.852 4.082.23.032.43-.138.464-.373.135-.96.539-3.198 1.352-3.198.88 0 .788 4.679.74 6.09a.409.409 0 01-.407.398z" fill="#2D3807" stroke="#2D3807" stroke-linecap="round"/><path d="M57.553 12H26.43a.429.429 0 00-.235.071c-3.616 2.397-5.217 3.921-5.195 6.538.002.22.188.391.41.391h41.166a.42.42 0 00.413-.513c-.567-2.428-.926-3.933-5.221-6.429a.433.433 0 00-.215-.058z" stroke="#2D3807" stroke-width="2" stroke-linecap="round"/><path d="M42.367 23c-3.575 0-4.908-2.34-5.336-3.441a.401.401 0 01.367-.559h9.208c.24 0 .43.212.388.47-.167 1.056-.952 3.53-4.627 3.53z" stroke="#2D3807" stroke-linecap="round"/><path d="M18.776 64.848c-5.101-6.143-6.387-10.05-5.532-17.465A.425.425 0 0113.66 47h53.91c.227 0 .412.189.417.424.14 6.452-.767 10.346-4.689 17.358a.42.42 0 01-.363.218H50.488a.454.454 0 01-.432-.366c-.348-1.577-2.189-7.709-9.72-7.709-7.483 0-8.917 6.054-9.168 7.678a.455.455 0 01-.438.397H19.094a.416.416 0 01-.318-.152z" stroke="#2D3807" stroke-width="2" stroke-linecap="round"/></symbol><symbol id="icon-tg" viewBox="0 0 32 32"><path fill="#fff" d="M24.687 30.163c-.402 0-.843-.132-1.32-.395l-10.803-7.976a.502.502 0 01-.038-.774L25.322 9.503a.499.499 0 11.669.743l-12.34 11.106 10.254 7.576c.271.145.729.329 1.055.178.332-.152.496-.637.576-1.017l4.375-20.617c.17-.681.088-1.229-.215-1.481-.231-.192-.575-.206-.947-.038L3.033 15.871c-.789.317-1.037.643-1.033.751.003.071.173.267.68.422l6.375 1.99 6.999-4.416a.5.5 0 01.533.845l-7.194 4.539a.504.504 0 01-.416.055l-6.592-2.058c-1.17-.358-1.37-.99-1.384-1.335-.02-.473.253-1.157 1.667-1.723l25.695-9.908c.697-.318 1.445-.25 1.974.191.613.511.813 1.413.549 2.474l-4.371 20.598c-.184.878-.566 1.457-1.137 1.719a1.63 1.63 0 01-.691.148z"/><path fill="#fff" d="M24.687 30.163c-.402 0-.843-.132-1.32-.395l-6.72-4.959a.5.5 0 11.594-.804l6.664 4.923c.271.145.729.329 1.055.178.332-.152.496-.637.576-1.017l4.375-20.617c.17-.681.088-1.229-.215-1.481-.231-.192-.575-.206-.947-.038L3.033 15.871c-.789.317-1.037.643-1.033.751.003.071.173.267.68.422l6.594 2.058a.503.503 0 01.33.332l2.267 7.461c.061.167.108.333.149.477.032.114.072.256.099.298-.004-.005.076.019.289.02.447 0 .617-.167.957-.498l1.66-1.614a.5.5 0 01.697.717L14.09 27.88c-.402.393-.828.809-1.682.809-.98 0-1.178-.434-1.351-1.046-.035-.124-.075-.267-.135-.432l-2.198-7.233-6.339-1.979c-1.17-.358-1.37-.99-1.384-1.335-.02-.473.253-1.157 1.667-1.723l25.695-9.908c.697-.318 1.445-.25 1.974.191.613.511.813 1.413.549 2.474l-4.371 20.598c-.184.878-.566 1.457-1.137 1.719a1.63 1.63 0 01-.691.148z"/><path fill="#fff" d="M18.5 14c0 .275-.225.5-.5.5a.501.501 0 01-.5-.5c0-.275.225-.5.5-.5s.5.225.5.5z"/></symbol><symbol id="icon-vk" viewBox="0 0 26 15"><path d="M15.54 11.728c.92-.29 2.1 1.913 3.354 2.755.942.639 1.663.501 1.663.501l3.345-.047s1.747-.105.921-1.457c-.068-.112-.484-1.002-2.489-2.833-2.096-1.915-1.812-1.605.712-4.916 1.538-2.019 2.153-3.251 1.96-3.776-.185-.506-1.314-.374-1.314-.374l-3.768.025c-.367 0-.678.111-.82.483-.003.003-.598 1.562-1.391 2.886-1.677 2.802-2.346 2.952-2.623 2.776-.637-.406-.476-1.628-.476-2.497 0-2.716.416-3.849-.815-4.141-.411-.098-.711-.161-1.76-.17-1.34-.02-2.479 0-3.124.308-.428.209-.757.667-.557.693.25.033.811.15 1.112.55.386.517.374 1.677.374 1.677s.22 3.198-.52 3.594c-.508.272-1.203-.283-2.699-2.827-.763-1.301-1.34-2.74-1.34-2.74s-.112-.267-.314-.413a1.583 1.583 0 00-.578-.229L.817 1.58s-.538.015-.735.245c-.175.205-.015.627-.015.627s2.802 6.45 5.974 9.7c2.908 2.983 6.213 2.785 6.213 2.785h1.497s.452-.05.683-.292c.216-.225.206-.648.206-.648s-.03-1.977.9-2.268z" fill="#fff"/></symbol></svg>