<svg width="84" height="84" fill="none" xmlns="http://www.w3.org/2000/svg"><path d="M84 42c0 23.196-18.804 42-42 42S0 65.196 0 42 18.804 0 42 0s42 18.804 42 42z" fill="#C7E80A"/><path d="M54 74.044l3-1m-28.047.071l-2.302-1.826m35.658-2.96l1.667-2.285M24 18.044l-2 3m40.379-2.87L65 21.044m-35-10l-3 2m28-2l2.157 1.996M35.336 75.117l2.937.073M35.336 9l2.937.073m6.907.031l2.937.072M43.602 75.22l2.937.073M19 29.044v3m0 8v3m0 9v4m1.285 8.209l1.937 2.209M65 52.044v4m.07-16L65 42.98m0-13.936v3" stroke="#2D3807" stroke-width="2" stroke-linecap="round"/><path d="M41.5 26.044a4.5 4.5 0 100-9 4.5 4.5 0 000 9z" fill="#2D3807"/><path d="M46.572 32.044H36.428c-.265 0-.47-.203-.42-.438.256-1.22 1.326-4.562 5.35-4.562 4 0 5.287 3.303 5.63 4.54.066.24-.14.46-.416.46z" fill="#2D3807" stroke="#2D3807" stroke-linecap="round"/><path d="M35.105 23.044l-7.933 5.8a.415.415 0 00-.172.335v31.93c0 .131.063.255.17.334l7.475 5.517a.43.43 0 00.256.084h14.198a.43.43 0 00.256-.084l7.475-5.516a.416.416 0 00.17-.335V29.19a.416.416 0 00-.185-.345l-8.6-5.8" stroke="#2D3807" stroke-width="2" stroke-linecap="round"/><path d="M28 28.544l6.016 3.448a.4.4 0 00.196.052h13.576a.4.4 0 00.196-.052l7.516-2.948" stroke="#2D3807" stroke-width="2" stroke-linecap="round"/><path d="M35 32.044v9m13-9v9m1 17v8m-14-8v8" stroke="#2D3807"/><path d="M42 40.044v14m6.002-11l-11.94 7.823m.078-7.682l12.212 8.293m-1.825-9.434l-.414 1.927 1.844.938m-7.859-4.186l1.908 1.257 1.806-1.257m-.097 12.135l-1.898-1.272L40 52.83m-3.023-10.786l.301 1.948-1.895.829m2.117 7.223l-.086-2.414-2.04-.345m12.86.122l-1.923.65.33 2.126" stroke="#2D3807" stroke-linecap="round"/><path d="M45 47.044a3 3 0 11-6 0 3 3 0 016 0zm-5.238 0a2.238 2.238 0 104.476 0 2.238 2.238 0 00-4.476 0z" fill="#2D3807"/></svg>