<svg width="84" height="84" fill="none" xmlns="http://www.w3.org/2000/svg"><path d="M84 42c0 23.196-18.804 42-42 42S0 65.196 0 42 18.804 0 42 0s42 18.804 42 42z" fill="#C7E80A"/><path d="M71.352 67.321l1.617-2.32M76 59l1-3M15 27h-3m54.723 1.35l2.94.072" stroke="#2D3807" stroke-width="2" stroke-linecap="round"/><path d="M30.785 22.06l4.196-.532m-.247 5.257l3.038-2.69M49.8 26.621l-3.037-2.69m-4.095 4.752l-.186-3.23m11.608-2.651l-4.385-1.518" stroke="#2D3807" stroke-linecap="round"/><path d="M77 33l.918 2.795M6.457 31l-.456 2.906M4.754 42.67l.244 2.932m1.928 9.813l.81 2.828m3.498 6.929l1.621 2.455M79.07 45L79 47.94" stroke="#2D3807" stroke-width="2" stroke-linecap="round"/><path d="M19 47a4 4 0 100-8 4 4 0 000 8z" fill="#2D3807"/><path d="M62.564 47H26.408a.41.41 0 01-.4-.493c.318-1.584 1.385-6.44 2.555-6.506 1.303-.074 28.2 3.584 31.852 4.082.23.032.43-.138.464-.373.135-.96.539-3.198 1.352-3.198.88 0 .788 4.679.74 6.09a.409.409 0 01-.407.398z" fill="#2D3807" stroke="#2D3807" stroke-linecap="round"/><path d="M57.553 12H26.43a.429.429 0 00-.235.071c-3.616 2.397-5.217 3.921-5.195 6.538.002.22.188.391.41.391h41.166a.42.42 0 00.413-.513c-.567-2.428-.926-3.933-5.221-6.429a.433.433 0 00-.215-.058z" stroke="#2D3807" stroke-width="2" stroke-linecap="round"/><path d="M42.367 23c-3.575 0-4.908-2.34-5.336-3.441a.401.401 0 01.367-.559h9.208c.24 0 .43.212.388.47-.167 1.056-.952 3.53-4.627 3.53z" stroke="#2D3807" stroke-linecap="round"/><path d="M18.776 64.848c-5.101-6.143-6.387-10.05-5.532-17.465A.425.425 0 0113.66 47h53.91c.227 0 .412.189.417.424.14 6.452-.767 10.346-4.689 17.358a.42.42 0 01-.363.218H50.488a.454.454 0 01-.432-.366c-.348-1.577-2.189-7.709-9.72-7.709-7.483 0-8.917 6.054-9.168 7.678a.455.455 0 01-.438.397H19.094a.416.416 0 01-.318-.152z" stroke="#2D3807" stroke-width="2" stroke-linecap="round"/></svg>