<svg width="28" height="28" viewBox="0 0 28 28" fill="none" xmlns="http://www.w3.org/2000/svg"><path d="M16 28h-4C5.373 28 0 22.627 0 16v-4C0 5.373 5.373 0 12 0h4c6.627 0 12 5.373 12 12v4c0 6.627-5.373 12-12 12z" fill="url(#paint0_linear_112_2)"/><path d="M17.581 6H10.42a4.429 4.429 0 00-3.125 1.297A4.417 4.417 0 006 10.42v7.167a4.417 4.417 0 001.296 3.118A4.429 4.429 0 0010.42 22h7.162a4.429 4.429 0 003.123-1.295A4.417 4.417 0 0022 17.587V10.42a4.417 4.417 0 00-1.294-3.123A4.429 4.429 0 0017.581 6zm3.002 11.587a2.996 2.996 0 01-3.002 2.99H10.42a3.004 3.004 0 01-3.002-2.99V10.42a3.003 3.003 0 013.002-2.998h7.162a3.01 3.01 0 013.002 2.998v7.167z" fill="#fff"/><path d="M14.007 10a4 4 0 10-.014 8 4 4 0 00.014-8zm0 6.615a2.622 2.622 0 110-5.244 2.622 2.622 0 010 5.244zM18.003 9A1.005 1.005 0 0017 10a.998.998 0 001.003 1c.264-.002.518-.104.709-.287a1.011 1.011 0 000-1.413 1.038 1.038 0 00-.709-.3z" fill="#fff"/><defs><linearGradient id="paint0_linear_112_2" x1="0" y1="23" x2="25.5" y2="2" gradientUnits="userSpaceOnUse"><stop stop-color="#DF993D"/><stop offset=".466" stop-color="#C3276A"/><stop offset="1" stop-color="#7024C4"/></linearGradient></defs></svg>