<svg width="84" height="84" fill="none" xmlns="http://www.w3.org/2000/svg"><path d="M84 42c0 23.196-18.804 42-42 42S0 65.196 0 42 18.804 0 42 0s42 18.804 42 42z" fill="#C7E80A"/><path d="M9 30l-3-2m12 7l-3-2m12-1l-3 2m11.763-6.437l-2.764 2.316m9.454-4.892l2.839.767m3.739-4.054l1.504-2.526m6.145-2.673l2.935-.171m6.342 1.576l2.335 1.787m3.224 5.338l1.07 2.739m1.664 8.214l-.07 2.94" stroke="#2D3807" stroke-width="2" stroke-linecap="round"/><path d="M59 37a5 5 0 100-10 5 5 0 000 10z" fill="#2D3807"/><path d="M58.996 42.527C58.6 40.359 42.7 31.082 39.736 32.074c-2.964.992-12.059 8.738-10.128 8.738 1.757 0 8.704-4.46 9.94-5.263a.405.405 0 01.392-.03c1.148.522 6.649 3.172 4.43 4.936-2.472 1.966-24.86 16.291-20.902 18.363 3.958 2.07 35.924-14.124 35.528-16.291z" fill="#2D3807" stroke="#2D3807" stroke-width="2" stroke-linecap="round"/><path d="M10 57.206c5.257 2.989 10.77 5.135 21.047 4.75 10.276-.386 22.934-10.052 29.465-11.624C67.044 48.759 74 53.29 74 53.29" stroke="#2D3807" stroke-width="2" stroke-linecap="round"/><path d="M10 62.206c5.257 2.989 10.77 5.135 21.047 4.75 10.276-.386 22.934-10.052 29.465-11.624C67.044 53.759 74 58.29 74 58.29" stroke="#2D3807" stroke-width="2" stroke-linecap="round"/></svg>