<svg width="84" height="84" fill="none" xmlns="http://www.w3.org/2000/svg"><g clip-path="url(#clip0_111_515)"><path d="M66 2043.5C66 3143.38-825.625 4035-1925.5 4035c-1099.88 0-1991.5-891.62-1991.5-1991.5C-3917 943.625-3025.38 52-1925.5 52-825.625 52 66 943.625 66 2043.5zM84 42c0 23.196-18.804 42-42 42S0 65.196 0 42 18.804 0 42 0s42 18.804 42 42z" fill="#C7E80A"/><path stroke="#2D3807" stroke-width="2" stroke-linecap="round" d="M37.529 64.431l-2.203.081m11.881-.174l-2.185-.296m25.065-48.226l-1.416-1.69m5.519 10.868l.512 2.145M58.234 61.512l-1.958 1.013m9.659-6.027l-1.693 1.413m8.095-9.823l-1.166 1.871m3.835-12.499l-.394 2.169M18.435 70.944l-1.415 1.69m10.465-7.101l-1.994.94"/><circle cx="59" cy="31" r="5" fill="#2D3807"/><path d="M42.064 56.042L60 37c-9.806 0-13.715 1.427-21.396 13.177 0 0-11.67.938-13.912 3.177C22.452 55.594 12.114 66 14.302 66c2.189 0 12.35-8.49 14.163-8.49 1.813 0 13.6-1.468 13.6-1.468z" fill="#2D3807" stroke="#2D3807" stroke-linecap="round"/><path d="M50 59.922C35.578 54.126 19.418 62.698 15 69m29.858-10.455c19.703-4.119 24.464-25.993 21.786-36.496M15 62V48.178a4.721 4.721 0 014.721-4.721v0m29.225 0H19.721m0 0s-.797-8.844 0-9.556c.798-.713 2.287 0 3.043-1.34.755-1.34-2.099-.785-3.043-2.3C18.777 28.748 25.271 10 35.89 10c10.616 0 16.113 18.968 15.41 20.262-.703 1.293-3.772.755-3.772 2.299s2.198 0 3.772 1.34c1.573 1.34 0 9.556 0 9.556" stroke="#2D3807" stroke-linecap="round"/><path d="M23.354 42s-.728-6.842-.096-7.46c.632-.617 2.56-1.338 2.56-2.605s-1.488-.68-2.236-1.993C22.835 28.629 27.75 13 36.16 13s12.466 15.29 11.91 16.41c-.557 1.122-3.034 1.728-2.735 3.056.299 1.329 1.81 2.075 3.095 2.667 1.285.593 0 6.867 0 6.867" stroke="#2D3807" stroke-linecap="round"/></g><defs><clipPath id="clip0_111_515"><path fill="#fff" d="M0 0h84v84H0z"/></clipPath></defs></svg>